<?xml version="1.0" encoding="UTF-8" standalone="no"?>
<!-- Created with Inkscape (http://www.inkscape.org/) -->

<svg
   width="396.02579mm"
   height="86.148346mm"
   viewBox="0 0 396.02579 86.148346"
   version="1.1"
   id="svg1"
   xmlns="http://www.w3.org/2000/svg"
   xmlns:svg="http://www.w3.org/2000/svg">
  <defs
     id="defs1" />
  <g
     id="layer1"
     transform="translate(-12.937006,-21.571395)">
    <path
       style="font-weight:bold;font-size:97.0139px;font-family:'Google Sans Flex';-inkscape-font-specification:'Google Sans Flex Bold';letter-spacing:0.232833px;white-space:pre;inline-size:477.251;stroke-width:0.264583"
       d="m 155.54484,48.041836 q -4.1716,0 -6.69396,-3.007431 -2.52236,-3.007431 -1.74625,-7.227535 l 6.16038,-34.7309768 q 0.53358,-2.86191003 2.95892,-4.8992019 2.42535,-2.0857989 5.43278,-2.0857989 v 0 q 3.97757,0 6.45143,2.7163892 2.47385,2.7163892 1.79475,6.5969453 l -0.97013,5.2387511 -1.55223,-2.0857994 h 2.23132 q 3.58952,-6.4514244 9.94393,-10.0409387 6.35441,-3.6380213 13.97,-3.6380213 3.39549,0 6.06337,0.7276043 2.71639,0.7276042 4.55965,2.1828128 1.89177,1.45520846 2.47386,4.0745838 0.58208,2.6193753 -0.77612,5.0447228 v 0 q -1.4067,2.4738545 -3.4925,3.2984727 -2.0858,0.824618 -3.97757,0.582083 -1.84326,-0.291041 -4.36562,-0.9216317 -2.47386,-0.6305904 -5.48129,-0.6305904 -8.3917,0 -14.40656,5.0447231 -6.01486,4.996216 -7.61559,14.164029 l -2.23132,12.369273 q -0.48507,2.910417 -3.05594,5.093229 -2.52236,2.134306 -5.67531,2.134306 z m 88.90348,1.164167 q -18.19011,0 -28.18254,-8.149168 -9.99243,-8.197674 -7.95514,-19.790835 v 0 q 2.1343,-12.0297241 14.26104,-19.2087527 12.17525,-7.1790287 29.49223,-7.1790287 17.31698,0 26.87285,7.3730565 9.55587,7.3730564 7.76111,17.7050369 v 0 q -0.38806,2.473854 -2.37684,3.97757 -1.94028,1.455208 -6.11188,1.455208 h -61.99188 l 1.3582,-7.761112 h 53.45465 v 0 q 0.43657,-4.60816 -4.8992,-7.615591 -5.28725,-3.0559377 -14.89163,-3.0559377 -10.96257,0 -17.75354,3.7350347 -6.79098,3.735036 -8.05216,10.768543 v 0 q -1.21267,6.887987 4.75368,11.30212 6.01486,4.365625 17.31698,4.365625 4.55966,0 8.87678,-0.582083 4.31711,-0.63059 7.66409,-1.455209 3.39549,-0.873125 6.64546,-2.134305 3.541,-1.212674 5.5783,0 2.08579,1.212673 2.61937,3.346979 v 0 q 0.53358,2.328334 -0.48507,4.317119 -1.01864,1.988785 -3.88055,3.152952 -3.39549,1.455208 -8.3432,2.716389 -4.8992,1.212674 -10.33198,1.940278 -5.38427,0.776111 -11.39913,0.776111 z m 82.54912,0 q -11.83569,0 -17.89906,-6.887987 -6.06337,-6.936494 -4.07459,-18.238613 l 6.06337,-34.1974 q 0.53358,-2.910417 3.05594,-5.044723 2.52236,-2.182813 5.67531,-2.182813 v 0 q 4.1716,0 6.69396,3.055938 2.52237,3.007431 1.74625,7.2275356 l -5.23875,29.5407324 q -1.21267,6.887987 0.97014,10.089446 2.18281,3.201459 8.05216,3.201459 3.4925,0 6.985,-0.970139 3.541,-0.970139 5.72382,-1.552223 2.18281,-0.63059 4.12309,0.09701 1.94028,0.727605 2.86191,2.764896 v 0 q 0.92163,2.037292 0.29104,4.268612 -0.58208,2.23132 -3.34698,3.880556 -2.7649,1.649236 -8.3917,3.298473 -5.62681,1.649236 -13.29091,1.649236 z M 301.91935,9.7213454 q -3.15295,0 -4.99622,-2.1343058 -1.79475,-2.1343058 -1.26118,-5.1417367 v 0 q 0.38806,-2.32833363 2.32834,-3.880556 1.94027,-1.5522225 4.31712,-1.5522225 h 46.13011 q 3.15295,0 4.99621,2.18281281 1.84327,2.13430579 1.30969,5.09322979 v 0 q -0.43656,2.3283336 -2.37684,3.880556 -1.89177,1.5522224 -4.31712,1.5522224 z m 99.18711,39.4846576 q -18.72369,0 -29.49223,-8.052154 -10.76854,-8.052153 -8.68274,-20.03337 v 0 q 2.1343,-11.93271 14.6491,-19.0632317 12.5633,-7.1790287 31.4325,-7.1790287 18.72368,0 29.58924,8.1006607 10.91406,8.0521537 8.82826,19.8878497 v 0 q -2.1343,11.93271 -14.74611,19.160245 -12.5633,7.179029 -31.57802,7.179029 z m 1.98878,-13.290904 q 10.96257,0 18.1416,-3.783542 7.17903,-3.783543 8.24618,-9.749898 v 0 q 1.06716,-6.063368 -5.09323,-10.137952 -6.11187,-4.074584 -17.02594,-4.074584 -10.76854,0 -18.09309,3.686528 -7.27604,3.686528 -8.3917,9.846911 v 0 q -1.06715,6.111876 5.09323,10.18646 6.16038,4.026077 17.12295,4.026077 z m 58.6352,32.887712 q -4.1716,0 -6.74247,-3.007431 -2.52236,-3.007431 -1.74625,-7.227536 l 9.79841,-55.5404577 q 0.48507,-2.81340313 2.86191,-4.899202 2.37684,-2.0857989 5.72382,-2.0857989 v 0 q 3.83205,0 6.25739,2.7163893 2.47386,2.7163892 1.94028,5.869341 l -0.97014,5.3357645 -3.05594,-3.880556 h 3.88056 q 4.60816,-5.0447229 12.90285,-8.1006607 8.29469,-3.1044449 18.38413,-3.1044449 15.47372,0 24.59303,8.1976746 9.1193,8.1491678 6.985,20.4699328 v 0 q -2.13431,12.078231 -13.09688,18.869204 -10.91406,6.790973 -27.35792,6.790973 -9.65288,0 -17.12295,-2.813403 -7.42157,-2.86191 -10.28348,-6.790973 h -0.33954 l -3.92907,21.973648 q -0.48507,2.910417 -3.05594,5.044723 -2.52236,2.182813 -5.6268,2.182813 z m 37.05931,-32.887712 q 10.52601,0 17.65653,-3.638022 7.17903,-3.686528 8.24618,-9.749897 v 0 q 1.11566,-6.160382 -4.80219,-10.234966 -5.91785,-4.123091 -16.7349,-4.123091 -10.62302,0 -17.94757,3.735035 -7.32455,3.735035 -8.3917,9.798404 v 0 q -1.11566,6.160383 5.04472,10.18646 6.16039,4.026077 16.92893,4.026077 z"
       id="text1"
       transform="translate(-133.98501,38.916928)"
       aria-label="retop" />
  </g>
</svg>
